<svg  version="1.1"
     baseProfile="full"
     width="400" height="400"
     xmlns="http://www.w3.org/2000/svg">
    <line x1="0" x2="100" y1="0" y2="100" />
    <rect width="400" height="400" fill="black"/>
    
    <rect x="10%" y="100" width="80%" height="40%" fill="royalblue" rx="10" ry="10" />
    <rect x="10%" y="250" width="80%" height="10%" fill="white" rx="10" ry="10" />
    <polygon points="150 315, 165 290, 215 290, 230 315" fill="royalblue" />
    <rect x="34%" y="316" width="26%" height="2%" fill="white" rx="2" ry="2" />
    <rect x="12%" y="105" width="75%" height="35%" fill="green" rx="5" ry="5" />
    <rect x="15%" y="120" width="90" height="70" fill="white" rx="5" ry="5" />
    <rect x="15%" y="120" width="90" height="20" fill="blue" rx="5" ry="5" />
    <circle r="3" cx="16.5%" cy="130" fill="white" />
    <circle r="3" cx="19%" cy="130" fill="white" />
    <circle r="3" cx="21.5%" cy="130" fill="white" />
    <rect x="23.7%" y="127" width="50" height="6" fill="white" rx="2" ry="2" />
    <rect x="16.5%" y="143" width="50" height="4" fill="aqua" rx="2" ry="2" />
    <rect x="16.5%" y="148" width="50" height="4" fill="aqua" rx="2" ry="2" />
    <rect x="16.5%" y="153" width="50" height="4" fill="aqua" rx="2" ry="2" />
    <rect x="16.5%" y="158" width="50" height="4" fill="aqua" rx="2" ry="2" />
    <rect x="16.5%" y="165" width="50" height="20" fill="gray" rx="2" ry="2" />
    <rect x="30%" y="143" width="25" height="20" fill="gray" rx="2" ry="2" />

    <rect x="25%" y="165" width="100" height="70" fill="white" rx="5" ry="5" />
    <rect x="25%" y="165" width="100" height="20" fill="blue" rx="5" ry="5" />
    <circle r="3.5" cx="27%" cy="173.5" fill="white" />
    <circle r="3.5" cx="29.5%" cy="173.5" fill="white" />
    <circle r="3.5" cx="32%" cy="173.5" fill="white" />
    <rect x="35%" y="171" width="50" height="6" fill="white" rx="2" ry="2" />


    <rect x="45%" y="130" width="140" height="100" fill="white" rx="5" ry="5" />
    <rect x="45%" y="130" width="140" height="20" fill="blue" rx="5" ry="5" />
    <circle r="4" cx="48%" cy="138.5" fill="white" />
    <circle r="4" cx="51%" cy="138.5" fill="white" />
    <circle r="4" cx="54%" cy="138.5" fill="white" />
    <rect x="57%" y="135" width="82" height="7" fill="white" rx="2" ry="2" />



</svg>
